<svg width="600" height="400" xmlns="http://www.w3.org/2000/svg">
  <!-- Background -->
  <rect width="600" height="400" fill="#f0f4f8" rx="10" ry="10"/>
  
  <!-- Decorative elements -->
  <circle cx="480" cy="80" r="40" fill="#3b82f6" opacity="0.2"/>
  <circle cx="120" cy="320" r="50" fill="#3b82f6" opacity="0.2"/>
  
  <!-- Abstract shapes -->
  <rect x="200" y="100" width="240" height="180" rx="10" ry="10" fill="#3b82f6" opacity="0.8"/>
  <rect x="220" y="120" width="200" height="30" rx="5" ry="5" fill="white"/>
  <rect x="220" y="170" width="160" height="10" rx="5" ry="5" fill="white" opacity="0.8"/>
  <rect x="220" y="190" width="140" height="10" rx="5" ry="5" fill="white" opacity="0.8"/>
  <rect x="220" y="210" width="180" height="10" rx="5" ry="5" fill="white" opacity="0.8"/>
  <rect x="220" y="240" width="100" height="30" rx="5" ry="5" fill="white"/>
  
  <!-- Abstract shapes on the sides -->
  <circle cx="140" cy="150" r="30" fill="#3b82f6"/>
  <rect x="100" y="200" width="80" height="10" rx="5" ry="5" fill="#3b82f6" opacity="0.7"/>
  <rect x="120" y="220" width="60" height="10" rx="5" ry="5" fill="#3b82f6" opacity="0.7"/>
  <rect x="130" y="240" width="40" height="10" rx="5" ry="5" fill="#3b82f6" opacity="0.7"/>
  
  <circle cx="460" cy="250" r="20" fill="#3b82f6"/>
  <rect x="430" y="290" width="60" height="10" rx="5" ry="5" fill="#3b82f6" opacity="0.7"/>
  <rect x="440" y="310" width="40" height="10" rx="5" ry="5" fill="#3b82f6" opacity="0.7"/>
</svg> 